Patient4_TMGait_0pt4_01_left_17_GRF.mot
version=1
nRows=54
nColumns=19
inDegrees=no
endheader
time	F1x	F1y	F1z	M1x	M1y	M1z	F2x	F2y	F2z	M2x	M2y	M2z	EC1x	EC1y	EC1z	EC2x	EC2y	EC2z
21.22	-11.0708	8.3344	2.1058	-2.828	-6.293	5.6202	-31.2452	3.762	-1.3836	-4.5911	16.9456	54.7797	-0.0592	0.0182	-0.0073	-0.0462	0.0165	0.9585
21.2226	-10.6017	2.581	0.59755	-0.85063	-4.8118	1.9663	-26.3981	5.5859	-4.1207	-3.3835	18.4798	57.5139	-0.0592	0.0182	-0.0073	-0.0462	0.0165	0.9585
21.2253	-9.8991	-2.1782	-0.69066	0.82535	-3.4645	-1.1437	-22.6951	6.758	-6.2301	-2.5332	19.725	59.0414	-0.0592	0.0182	-0.0073	-0.0462	0.0165	0.9585
21.2279	-9.0007	-5.4666	-1.6461	2.0517	-2.354	-3.4226	-20.5281	7.0632	-7.6093	-2.1395	20.6646	59.1195	-0.0592	0.0182	-0.0073	-0.0462	0.0165	0.9585
21.2306	-8.02	-7.2154	-2.2756	2.8209	-1.4951	-4.8217	-19.8273	6.515	-8.4756	-2.1621	21.4587	57.9836	-0.0592	0.0182	-0.0073	-0.0462	0.0165	0.9585
21.2332	-7.0844	-7.8513	-2.606	3.2496	-0.89095	-5.581	-20.0916	5.4812	-9.1022	-2.4515	22.219	56.3697	-0.0592	0.0182	-0.0073	-0.0462	0.0165	0.9585
21.2359	-6.2922	-8.1051	-2.6762	3.5302	-0.53825	-6.1273	-20.6892	4.565	-9.5911	-2.8274	22.9239	55.1646	-0.0592	0.0182	-0.0073	-0.0462	0.0165	0.9585
21.2385	-5.6973	-8.6168	-2.5513	3.8389	-0.40758	-6.8215	-21.2114	4.25	-9.9615	-3.1283	23.5261	54.8827	-0.0592	0.0182	-0.0073	-0.0462	0.0165	0.9585
21.2411	-5.3074	-9.5763	-2.2843	4.2413	-0.45891	-7.7183	-21.624	4.5952	-10.2111	-3.2709	23.9703	55.3745	-0.0592	0.0182	-0.0073	-0.0462	0.0165	0.9585
21.2438	-5.0924	-10.6842	-1.8776	4.6623	-0.67566	-8.5638	-22.1237	5.2417	-10.2646	-3.2901	24.1981	55.9956	-0.0592	0.0182	-0.0073	-0.0462	0.0165	0.9585
21.2464	-4.9915	-11.44	-1.3452	4.9689	-1.0417	-9.0483	-22.8546	5.6871	-9.9693	-3.3079	24.1423	56.061	-0.0592	0.0182	-0.0073	-0.0462	0.0165	0.9585
21.2491	-4.9284	-11.5387	-0.76296	5.0833	-1.4981	-9.0764	-23.7247	5.6079	-9.2887	-3.4136	23.7792	55.2497	-0.0592	0.0182	-0.0073	-0.0462	0.0165	0.9585
21.2517	-4.8132	-11.0935	-0.23818	5.0283	-1.9371	-8.8227	-24.4435	5.0948	-8.442	-3.5678	23.2229	53.8073	-0.0592	0.0182	-0.0073	-0.0462	0.0165	0.9585
21.2544	-4.5661	-10.5525	0.11529	4.9159	-2.2151	-8.619	-24.7374	4.6639	-7.702	-3.6394	22.6483	52.4829	-0.0592	0.0182	-0.0073	-0.0462	0.0165	0.9585
21.257	-4.1705	-10.4092	0.22199	4.8849	-2.2338	-8.762	-24.5883	4.9437	-7.1788	-3.5054	22.1662	52.048	-0.0592	0.0182	-0.0073	-0.0462	0.0165	0.9585
21.2596	-3.7051	-10.8783	0.10558	5.0097	-2.0139	-9.3129	-24.2845	6.2127	-6.9214	-3.1039	21.879	52.7526	-0.0592	0.0182	-0.0073	-0.0462	0.0165	0.9585
21.2623	-3.3144	-11.7357	-0.078655	5.2427	-1.716	-10.0202	-24.23	8.1984	-6.9531	-2.4643	21.8875	54.2083	-0.0592	0.0182	-0.0073	-0.0462	0.0165	0.9585
21.2649	-3.141	-12.4714	-0.1386	5.4574	-1.5629	-10.4817	-24.6449	10.3264	-7.1274	-1.7035	22.119	55.7533	-0.0592	0.0182	-0.0073	-0.0462	0.0165	0.9585
21.2676	-3.2425	-12.6499	0.025167	5.5476	-1.6775	-10.4319	-25.3898	12.1785	-7.1809	-0.93136	22.3181	56.9537	-0.0592	0.0182	-0.0073	-0.0462	0.0165	0.9585
21.2702	-3.5354	-12.2023	0.39295	5.4848	-2.022	-9.92	-26.0494	13.7651	-6.9972	-0.1401	22.2716	57.8461	-0.0592	0.0182	-0.0073	-0.0462	0.0165	0.9585
21.2729	-3.8248	-11.4717	0.82763	5.3355	-2.4163	-9.2955	-26.2237	15.4798	-6.6187	0.77394	21.8974	58.8188	-0.0592	0.0182	-0.0073	-0.0462	0.0165	0.9585
21.2755	-3.9089	-10.9944	1.1229	5.227	-2.6374	-9.0143	-25.8007	17.8355	-6.1403	1.925	21.2599	60.3484	-0.0592	0.0182	-0.0073	-0.0462	0.0165	0.9585
21.2781	-3.6934	-11.1415	1.1125	5.2596	-2.5431	-9.3381	-25.0252	21.1274	-5.7067	3.377	20.5883	62.7396	-0.0592	0.0182	-0.0073	-0.0462	0.0165	0.9585
21.2808	-3.2424	-11.8453	0.80602	5.4203	-2.1564	-10.1233	-24.3643	25.1916	-5.4236	5.0774	20.1184	65.9126	-0.0592	0.0182	-0.0073	-0.0462	0.0165	0.9585
21.2834	-2.7545	-12.6199	0.38316	5.5876	-1.663	-10.8839	-24.2284	29.4391	-5.281	6.8505	19.9368	69.3864	-0.0592	0.0182	-0.0073	-0.0462	0.0165	0.9585
21.2861	-2.4681	-12.8927	0.037777	5.6303	-1.2802	-11.1143	-24.7166	33.2319	-5.2805	8.527	20.0393	72.5765	-0.0592	0.0182	-0.0073	-0.0462	0.0165	0.9585
21.2887	-2.53	-12.4191	-0.10004	5.4956	-1.1644	-10.6263	-25.5414	36.3476	-5.4338	10.0559	20.334	75.2139	-0.0592	0.0182	-0.0073	-0.0462	0.0165	0.9585
21.2914	-2.9109	-11.46	0.015161	5.2348	-1.3534	-9.6816	-26.2085	39.1228	-5.6879	11.5139	20.658	77.4959	-0.0592	0.0182	-0.0073	-0.0462	0.0165	0.9585
21.294	-3.418	-10.5842	0.29757	4.9722	-1.716	-8.8193	-26.3345	42.1388	-5.9625	13.042	20.8938	79.8411	-0.0592	0.0182	-0.0073	-0.0462	0.0165	0.9585
21.2966	-3.7969	-10.2509	0.56327	4.8183	-2.0333	-8.4783	-25.8822	45.7576	-6.1813	14.7465	20.97	82.547	-0.0592	0.0182	-0.0073	-0.0462	0.0165	0.9585
21.2993	-3.8733	-10.4863	0.67803	4.7785	-2.1517	-8.6971	-25.1735	49.9086	-6.2366	16.6267	20.8223	85.6362	-0.0592	0.0182	-0.0073	-0.0462	0.0165	0.9585
21.3019	-3.6505	-10.8701	0.64645	4.7409	-2.0788	-9.1015	-24.6886	54.2028	-6.0006	18.5855	20.4386	88.9134	-0.0592	0.0182	-0.0073	-0.0462	0.0165	0.9585
21.3046	-3.3167	-10.8222	0.53232	4.5659	-1.9256	-9.1678	-24.783	58.215	-5.3737	20.4923	19.8438	92.1096	-0.0592	0.0182	-0.0073	-0.0462	0.0165	0.9585
21.3072	-3.1378	-9.996	0.40046	4.1845	-1.8164	-8.5642	-25.482	61.774	-4.4476	22.2945	19.1423	95.0585	-0.0592	0.0182	-0.0073	-0.0462	0.0165	0.9585
21.3099	-3.3011	-8.5186	0.30836	3.6398	-1.8325	-7.3482	-26.4513	65.1157	-3.516	24.0672	18.5223	97.8503	-0.0592	0.0182	-0.0073	-0.0462	0.0165	0.9585
21.3125	-3.8102	-6.9148	0.28569	3.066	-1.9745	-5.9171	-27.1729	68.7172	-2.7673	25.911	18.0353	100.7824	-0.0592	0.0182	-0.0073	-0.0462	0.0165	0.9585
21.3151	-4.4916	-5.7456	0.33299	2.5999	-2.2019	-4.7474	-27.2478	72.8566	-2.2047	27.8579	17.5805	104.0375	-0.0592	0.0182	-0.0073	-0.0462	0.0165	0.9585
21.3178	-5.0925	-5.2173	0.42111	2.2924	-2.4472	-4.0734	-26.6362	77.2861	-1.7938	29.8476	17.0822	107.4035	-0.0592	0.0182	-0.0073	-0.0462	0.0165	0.9585
21.3204	-5.4133	-5.0594	0.53182	2.0729	-2.6559	-3.7579	-25.679	81.3725	-1.4538	31.7448	16.5173	110.3704	-0.0592	0.0182	-0.0073	-0.0462	0.0165	0.9585
21.3231	-5.4175	-4.7472	0.6683	1.8007	-2.8205	-3.4508	-24.8767	84.5807	-0.99345	33.404	15.8505	112.5219	-0.0592	0.0182	-0.0073	-0.0462	0.0165	0.9585
21.3257	-5.2367	-3.8706	0.82381	1.3636	-2.9617	-2.8427	-24.5739	86.8466	-0.2864	34.78	15.0808	113.8372	-0.0592	0.0182	-0.0073	-0.0462	0.0165	0.9585
21.3284	-5.0697	-2.377	0.96905	0.7415	-3.1076	-1.8287	-24.7563	88.5631	0.59181	35.9536	14.2682	114.6669	-0.0592	0.0182	-0.0073	-0.0462	0.0165	0.9585
21.331	-5.0592	-0.57365	1.0524	0.012844	-3.2459	-0.53479	-25.0619	90.2743	1.4238	37.0572	13.4986	115.4897	-0.0592	0.0182	-0.0073	-0.0462	0.0165	0.9585
21.3336	-5.2257	1.072	1.0369	-0.69383	-3.3373	0.7673	-25.0195	92.3218	2.0313	38.1687	12.8344	116.6263	-0.0592	0.0182	-0.0073	-0.0462	0.0165	0.9585
21.3363	-5.4852	2.2262	0.94235	-1.2801	-3.358	1.8335	-24.3645	94.6046	2.3738	39.2533	12.2834	118.0022	-0.0592	0.0182	-0.0073	-0.0462	0.0165	0.9585
21.3389	-5.7018	2.9238	0.8731	-1.7513	-3.3406	2.6309	-23.2325	96.5767	2.5123	40.1799	11.8206	119.0835	-0.0592	0.0182	-0.0073	-0.0462	0.0165	0.9585
21.3416	-5.7571	3.5441	0.94954	-2.2066	-3.3719	3.3584	-22.0744	97.5737	2.5654	40.7931	11.4118	119.1583	-0.0592	0.0182	-0.0073	-0.0462	0.0165	0.9585
21.3442	-5.6097	4.53	1.2106	-2.7571	-3.5094	4.274	-21.3286	97.2939	2.6349	41.0273	11.0395	117.8442	-0.0592	0.0182	-0.0073	-0.0462	0.0165	0.9585
21.3469	-5.3017	6.0643	1.6066	-3.4524	-3.7446	5.4889	-21.0998	96.051	2.7963	40.9577	10.669	115.4158	-0.0592	0.0182	-0.0073	-0.0462	0.0165	0.9585
21.3495	-4.927	7.9472	2.0213	-4.2488	-3.9921	6.8885	-21.089	94.5665	3.0464	40.76	10.2723	112.6607	-0.0592	0.0182	-0.0073	-0.0462	0.0165	0.9585
21.3521	-4.5782	9.7461	2.2992	-5.0304	-4.1248	8.2352	-20.8318	93.4684	3.3246	40.5908	9.8284	110.3487	-0.0592	0.0182	-0.0073	-0.0462	0.0165	0.9585
21.3548	-4.3098	11.1134	2.3371	-5.6926	-4.0695	9.3601	-20.0458	92.903	3.5693	40.497	9.3033	108.7665	-0.0592	0.0182	-0.0073	-0.0462	0.0165	0.9585
21.3574	-4.1346	12.0218	2.1812	-6.2189	-3.8762	10.2871	-18.8349	92.5107	3.7823	40.4016	8.6718	107.5936	-0.0592	0.0182	-0.0073	-0.0462	0.0165	0.9585
21.3601	-4.0301	12.769	2.0022	-6.6852	-3.6893	11.2137	-17.6115	91.6939	4.0406	40.1564	7.9547	106.1127	-0.0592	0.0182	-0.0073	-0.0462	0.0165	0.9585
